Coordinates
version=1
nRows=23
nColumns=30
inDegrees=yes

Units are S.I. units (second, meters, Newtons, ...)
Angles are in degrees.

endheader
time	floatyaw	floatroll	floatpitch	floatx	floaty	floatz	pro_sup_l	deviation_l	flexion_l	cmc_flexion_l	cmc_abduction_l	mp_flexion_l	ip_flexion_l	2mcp_flexion_l	2mcp_abduction_l	2pm_flexion_l	2md_flexion_l	3mcp_flexion_l	3mcp_abduction_l	3pm_flexion_l	3md_flexion_l	4mcp_flexion_l	4mcp_abduction_l	4pm_flexion_l	4md_flexion_l	5mcp_flexion_l	5mcp_abduction_l	5pm_flexion_l	5md_flexion_l
0.005000	-160.147433	-5.066637	-73.570646	-0.070555	-0.138910	-0.121460	58.848175	-2.189785	-7.326373	7.850521	6.014568	-34.754529	-53.205885	50.744127	15.824781	56.077785	50.735122	60.469913	6.322225	58.791277	34.328606	50.777299	-6.297571	62.303208	45.549726	31.531069	-14.718926	74.457104	63.385295
0.015000	-160.147433	-5.066637	-73.570646	-0.070796	-0.135454	-0.121732	57.931208	-2.286492	-8.215504	7.499832	6.994052	-35.022948	-53.611947	52.519906	15.898231	55.388048	50.843592	61.549204	6.359085	58.606048	34.135492	51.811321	-6.408263	62.100749	45.561101	32.341796	-14.625696	74.592142	63.897685
0.025000	-160.147433	-5.066637	-73.570646	-0.071029	-0.131593	-0.122019	57.208626	-2.369384	-9.137473	7.081285	7.869363	-35.334459	-54.120015	54.284782	15.947812	54.671158	50.962397	62.679521	6.402356	58.346127	33.926984	52.945807	-6.539475	61.719920	45.559373	33.245024	-14.520748	74.694517	64.377751
0.035000	-160.147433	-5.066637	-73.570646	-0.071295	-0.127866	-0.122255	56.646460	-2.500226	-9.952147	6.576143	8.582302	-35.675377	-54.683514	55.933534	15.991205	53.922135	51.081451	63.836998	6.435489	57.966985	33.652535	54.082469	-6.671674	61.232356	45.505159	34.159690	-14.414561	74.834534	64.795335
0.045000	-160.147433	-5.066637	-73.570646	-0.071601	-0.124815	-0.122390	56.152248	-2.708299	-10.552185	6.045469	9.117262	-36.016416	-55.232459	57.380892	16.044468	53.159809	51.164878	64.968717	6.446729	57.473144	33.285861	55.086221	-6.785059	60.775117	45.380186	34.970160	-14.316902	75.111236	65.142018
0.055000	-160.147433	-5.066637	-73.570646	-0.071904	-0.122807	-0.122402	55.623285	-2.974877	-10.902514	5.587549	9.498048	-36.315681	-55.688333	58.570361	16.114795	52.427159	51.178934	65.996308	6.432206	56.921799	32.840900	55.832867	-6.865906	60.486613	45.191719	35.571444	-14.233953	75.587657	65.423276
0.065000	-160.147433	-5.066637	-73.570646	-0.072134	-0.121916	-0.122307	55.005036	-3.239718	-11.042380	5.279510	9.762339	-36.530696	-55.986571	59.471268	16.197375	51.781543	51.116048	66.833809	6.396029	56.402405	32.370421	56.253950	-6.909855	60.443599	44.967848	35.906718	-14.168503	76.242729	65.647469
0.075000	-160.147433	-5.066637	-73.570646	-0.072228	-0.121941	-0.122145	54.319395	-3.429821	-11.052157	5.139546	9.934851	-36.636208	-56.098924	60.075343	16.278647	51.276421	50.999417	67.415529	6.347715	56.000560	31.945422	56.357587	-6.921414	60.635229	44.745850	35.979832	-14.120998	76.973774	65.818509
0.085000	-160.147433	-5.066637	-73.570646	-0.072161	-0.122512	-0.121960	53.646267	-3.495296	-11.007984	5.127932	10.017140	-36.636017	-56.042903	60.398335	16.343752	50.941979	50.868198	67.720211	6.298288	55.764294	31.625459	56.217838	-6.910760	60.982960	44.557815	35.842436	-14.089847	77.646295	65.934482
0.095000	-160.147433	-5.066637	-73.570646	-0.071960	-0.123244	-0.121779	53.075849	-3.432009	-10.951316	5.177388	9.994867	-36.559588	-55.870907	60.482228	16.384005	50.774552	50.757466	67.777771	6.256699	55.690112	31.436131	55.941196	-6.889643	61.386423	44.419121	35.568111	-14.071541	78.156737	65.991487
0.105000	-160.147433	-5.066637	-73.570646	-0.071689	-0.123861	-0.121612	52.663896	-3.279526	-10.885762	5.228930	9.851269	-36.445535	-55.644459	60.390388	16.400947	50.740396	50.687260	67.655149	6.227669	55.733274	31.364504	55.626989	-6.867946	61.765659	44.324766	35.227468	-14.061690	78.472103	65.989954
0.115000	-160.147433	-5.066637	-73.570646	-0.071412	-0.124238	-0.121456	52.412447	-3.098361	-10.794148	5.253667	9.577395	-36.323183	-55.408330	60.193707	16.405549	50.791006	50.663499	67.430060	6.211220	55.832327	31.371646	55.337249	-6.851624	62.080968	44.254938	34.872531	-14.056738	78.631867	65.939864
0.125000	-160.147433	-5.066637	-73.570646	-0.071169	-0.124390	-0.121299	52.278774	-2.941317	-10.659526	5.254637	9.177101	-36.202917	-55.177945	59.953213	16.413142	50.881075	50.683379	67.166233	6.203678	55.933192	31.412840	55.085218	-6.842226	62.329777	44.186308	34.531690	-14.055148	78.720517	65.862237
0.135000	-160.147433	-5.066637	-73.570646	-0.070966	-0.124410	-0.121134	52.201002	-2.833850	-10.477477	5.254531	8.667621	-36.078293	-54.943705	59.706736	16.436425	50.980225	50.737634	66.899425	6.199662	56.003522	31.454861	54.844079	-6.837807	62.531547	44.102810	34.211734	-14.057138	78.828781	65.785762
0.145000	-160.147433	-5.066637	-73.570646	-0.070778	-0.124411	-0.120958	52.124923	-2.770360	-10.256583	5.279846	8.075318	-35.935322	-54.685893	59.464131	16.479844	51.075010	50.809023	66.635917	6.194345	56.035910	31.483944	54.570273	-6.834844	62.712247	44.000900	33.902188	-14.063160	79.019687	65.738710
0.155000	-160.147433	-5.066637	-73.570646	-0.070570	-0.124479	-0.120773	52.020667	-2.723926	-10.011247	5.349840	7.426629	-35.761872	-54.389900	59.211206	16.538214	51.163833	50.872649	66.359929	6.185103	56.042944	31.503819	54.229739	-6.830393	62.894110	43.888102	33.579490	-14.072208	79.309756	65.738068
0.165000	-160.147433	-5.066637	-73.570646	-0.070314	-0.124651	-0.120579	51.885497	-2.661701	-9.753308	5.473203	6.737508	-35.552610	-54.054120	58.919525	16.600230	51.250223	50.903284	66.044971	6.171905	56.047959	31.527556	53.814187	-6.823558	63.090860	43.777248	33.212089	-14.081216	79.669670	65.780885
0.175000	-160.147433	-5.066637	-73.570646	-0.070000	-0.124920	-0.120380	51.735907	-2.558281	-9.487239	5.650395	6.007441	-35.309028	-53.688834	58.558314	16.654351	51.338356	50.888147	65.665126	6.156535	56.074877	31.568546	53.340396	-6.815551	63.306709	43.680224	32.768854	-14.086066	80.042388	65.844101
0.185000	-160.147433	-5.066637	-73.570646	-0.069633	-0.125249	-0.120173	51.595512	-2.402773	-9.210444	5.877631	5.222895	-35.036981	-53.309682	58.105205	16.693177	51.431210	50.836845	65.203878	6.141384	56.140027	31.634618	52.835582	-6.808396	63.537820	43.604182	32.230205	-14.083517	80.369724	65.895080
0.195000	-160.147433	-5.066637	-73.570646	-0.069234	-0.125592	-0.119958	51.484517	-2.199156	-8.917249	6.149288	4.369953	-34.744503	-52.931277	57.553632	16.714177	51.529611	50.780185	64.659222	6.128517	56.247910	31.726305	52.319579	-6.803181	63.775271	43.551049	31.597251	-14.072728	80.614497	65.907517
0.205000	-160.147433	-5.066637	-73.570646	-0.068828	-0.125911	-0.119734	51.413732	-1.962059	-8.603733	6.457586	3.449760	-34.441016	-52.564412	56.915576	16.717865	51.630927	50.756784	64.044467	6.119203	56.391319	31.838045	51.795319	-6.799029	64.008427	43.519056	30.893458	-14.055399	80.768714	65.873322
0.215000	-160.147433	-5.066637	-73.570646	-0.068433	-0.126180	-0.119504	51.383443	-1.710711	-8.270801	6.790554	2.488054	-34.137127	-52.216422	56.219024	16.705901	51.728118	50.794629	63.384741	6.113721	56.554845	31.960658	51.252541	-6.793446	64.227696	43.504383	30.157248	-14.034573	80.847372	65.803970
0.225000	-160.147433	-5.066637	-73.570646	-0.068064	-0.126393	-0.119269	51.385898	-1.463221	-7.924462	7.130713	1.533412	-33.843730	-51.892020	55.500546	16.680454	51.810856	50.897720	62.710215	6.111369	56.720120	32.084011	50.680171	-6.783718	64.426192	43.501996	29.428811	-14.012931	80.875315	65.721615
